<svg width="959" height="128" viewBox="0 0 959 128" fill="none" xmlns="http://www.w3.org/2000/svg">
<path d="M469.207 18.8906L453.159 94.1673L452.557 18.8874H433.024L416.316 92.8796L415.871 92.5657C416.745 67.9433 416.46 43.4394 416.693 18.8874H396.52L399.495 125.548L422.214 125.535L437.609 61.8061L438.73 125.254L461.468 125.574L488.74 18.8906H469.207Z" fill="#6E4CFF"/>
<path d="M599.702 54.3012C602.106 39.3522 602.708 20.4666 584.322 18.8907H549.58L537.501 125.555H557.034L562.039 81.3516H569.083L574.645 125.555H594.818L587.707 75.6244C595.75 72.5142 598.51 61.6972 599.698 54.3012H599.702ZM578.129 61.3897C577.38 62.9144 575.398 64.6953 573.694 64.6953H563.928L567.082 36.8282H577.489C577.617 36.8282 579.349 37.9044 579.557 38.1318C580.72 39.3971 581.014 42.2831 580.989 44.0384C580.918 48.5228 580.15 57.2769 578.126 61.3897H578.129Z" fill="#6E4CFF"/>
<path d="M502.15 19.0284L472.179 125.555H491.552C491.913 125.35 492 125.106 492.115 124.744C494.504 117.185 495.637 108.687 498.097 101.137C498.225 100.743 498.359 100.352 498.484 99.9617L513.185 99.9265L513.483 125.555H533.335L529.73 18.8874L502.154 19.0284H502.15ZM512.56 84.2344H502.154C505.839 68.8594 511.068 53.6509 513.3 38.1062L512.56 51.7195L513.14 83.4368C513.146 83.7059 512.72 84.2344 512.56 84.2344Z" fill="#6E4CFF"/>
<path d="M696.145 63.4237H680.455L685.498 18.9003H666.286L654.207 125.564H673.42L678.46 81.0409H694.15L689.11 125.564H708.643L720.721 18.9003H701.188L696.145 63.4237Z" fill="#6E4CFF"/>
<path d="M734.451 26.0817C726.68 33.8492 725.044 44.1377 723.471 53.9713C721.771 64.612 720.654 75.3521 719.863 85.9929C718.505 104.27 716.501 125.225 739.706 126.858C769.773 128.972 773.632 108.905 777.298 84.7116C779.386 70.9286 783.597 44.5637 779.735 32.1964C774.525 15.5178 746.991 13.5542 734.455 26.0817H734.451ZM757.705 85.3683C756.747 91.8866 756.168 108.902 747.084 109.869C738.384 110.795 738.761 101.928 738.931 95.6119C739.315 81.4156 741.304 63.0265 744.227 48.8527C745.159 44.3395 746.76 36.511 752.364 35.6334C759.985 34.4386 761.022 38.4713 761.288 44.7367C761.829 57.4627 759.597 72.4853 757.705 85.3651V85.3683Z" fill="#6E4CFF"/>
<path d="M825.749 18.9003L816.155 103.623C816.104 104.062 814.846 106.281 814.465 106.772C811.295 110.865 803.962 110.795 801.765 106.772C801.496 106.278 800.737 104.062 800.789 103.623L810.379 18.9003H790.846L781.144 104.584C779.87 115.827 788.762 124.168 798.807 126.118C816.584 129.575 834.154 121.067 836.313 101.073L845.602 18.9003H825.749Z" fill="#6E4CFF"/>
<path d="M600.733 125.564H648.123L650.154 107.627H622.295L625.344 80.7206H651.281L653.221 63.5838L652.795 63.1034H627.339L630.221 37.6385L630.755 37.1581H658.133L660.202 18.9003H612.811L600.733 125.564Z" fill="#6E4CFF"/>
<path d="M867.997 42.1357C869.585 33.0068 881.788 32.5071 883.143 39.7366C883.319 40.6719 883.527 43.5034 883.428 44.3715L882.72 50.6176H901.612C902.656 39.6693 902.941 27.2476 893.089 21.3026C883.258 15.3704 865.439 16.8406 856.326 26.4436C848.375 34.8198 846.732 49.3011 849.928 58.9361C854.715 73.379 877.277 82.8634 877.27 97.9534C877.27 105.048 875.5 111.576 866.819 110.795C858.513 110.048 861.522 101.448 861.631 95.4613H843.059C842.275 103.636 840.133 113.229 845.435 119.651C852.313 127.983 870.395 128.86 880.764 124.088C897.648 116.317 900.466 92.9725 892.996 79.7948C886.553 68.427 865.557 56.1622 867.997 42.1325V42.1357Z" fill="#6E4CFF"/>
<path d="M929.554 37.1677H956.931L959 18.9099H911.609L899.531 125.574H946.922L948.952 107.636H921.094L924.142 80.7302H950.079L952.019 63.5934L951.594 63.113H926.137L929.019 37.6481L929.554 37.1677Z" fill="#6E4CFF"/>
<path d="M286.543 14.9759H250.566L237.737 125.368H257.964L263.279 79.6198H270.574L276.201 125.368H297.091L289.866 73.6825C298.125 70.6028 301.073 59.5106 302.323 51.9555C304.896 36.3813 305.792 16.6235 286.543 14.9759ZM282.77 45.9752C282.468 49.3797 281.536 56.4972 279.789 59.4741C278.976 60.8598 276.927 62.3814 275.395 62.3814H265.282L268.634 33.5403H279.411C281.195 33.5403 282.7 36.5371 282.935 38.1052C283.217 39.9915 282.952 43.9198 282.773 45.9752H282.77Z" fill="#6E4CFF"/>
<path d="M366.87 52.7677C368.428 38.4466 371.127 21.8746 355.622 16.0633C341.991 10.9547 322.324 14.5118 314.655 29.9004C308.504 42.2391 306.584 65.9949 305.424 79.4408C304.333 92.101 301.309 111.892 310.537 120.896C318.037 128.215 334.315 128.491 343.383 120.727L344.01 125.368H358.766L365.676 63.0445H335.502L333.459 80.6143H344.401C343.543 86.0975 343.712 91.5541 342.84 97.0405C342.395 99.8517 341.921 103.598 340.081 105.922C336.612 110.294 328.668 110.735 326.376 106.117C323.936 101.201 325.872 87.7484 326.376 81.7613C327.431 69.3133 328.711 55.7215 331.493 43.3231C332.673 38.0554 333.92 32.1613 340.628 31.8795C344.773 31.7071 347.19 33.8718 347.568 37.83C348.016 42.5109 347.13 47.1918 346.643 52.7677H366.87Z" fill="#6E4CFF"/>
<path d="M237.2 25.6107C232.568 15.8378 221.175 13.5604 210.441 14.4124C192.764 15.8146 184.617 27.7953 181.209 43.9861C178.715 55.8308 177.674 68.5508 176.653 80.4353C174.982 99.9014 171.099 124.914 196.614 126.707C226.805 128.829 231.507 109.87 235.439 85.0764C237.8 70.1884 243.145 38.1582 237.197 25.6107H237.2ZM215.611 84.7714C214.815 90.1485 213.164 102.275 209.576 106.449C206.711 109.78 200.026 110.158 197.758 106.972C195.321 103.545 195.951 92.648 196.296 88.0832C197.317 74.687 199.025 56.4839 202.211 43.3562C203.209 39.2489 205.017 33.1094 210 32.2872C217.239 31.0938 218.926 34.5514 219.291 40.7539C220.037 53.4341 217.544 71.6868 215.607 84.7681L215.611 84.7714Z" fill="#6E4CFF"/>
<path d="M370.315 105.527L368.067 125.368H387.912L390.16 105.527H370.315Z" fill="#6E4CFF"/>
<path d="M158.777 68.6768C159.964 67.6657 161.639 67.5066 163.157 66.6944C172.767 61.5494 174.925 40.0379 174.315 31.1502C173.569 20.2801 168.081 15.6257 157.242 14.9594L119.59 14.9727L116.586 41.8612C116.377 43.7309 116.812 45.6072 117.807 47.2051C119.305 49.6152 124.631 58.8012 126.63 61.9605C130.128 67.4867 133.855 78.1546 133.527 77.959H144.27C145.49 77.959 147.841 80.9525 148.19 82.1692C149.43 86.492 147.722 100.853 145.421 105.143C145.003 105.922 144.035 107.102 143.292 107.609C142.728 107.997 140.944 109.18 139.323 109.121H130.854L123.424 109.034C115.439 108.942 108.575 114.67 107.242 122.54L106.765 125.365H146.721C152.169 125.365 157.239 122.49 160.137 119.911C168.347 112.598 170.515 94.1531 170.111 84.5162C169.792 76.928 167.322 69.3763 158.78 68.6735L158.777 68.6768ZM149.523 58.4001C148.796 59.7958 146.731 62.3815 145.083 62.3815H133.975L137.556 31.5513H148.664C149.227 31.5513 151.025 33.315 151.353 33.8951C154.006 38.5263 152.188 53.2783 149.519 58.4034L149.523 58.4001Z" fill="#6E4CFF"/>
<path d="M126.56 81.3636C124.67 75.5456 121.656 68.9288 118.347 63.7075L109.47 49.466C109.265 49.1776 108.877 47.9609 108.96 47.8515C108.383 41.1551 108.287 34.8233 106.851 28.1865C105.021 19.7165 100.551 11.5349 92.4735 6.74467C88.6039 4.45064 83.9551 2.21297 79.4256 1.41735C59.3449 -2.10657 46.7878 2.05053 46.7878 2.05053H46.7811C43.1437 3.10472 39.5426 4.90149 36.4423 6.74135C28.3649 11.5316 23.8952 19.7132 22.0648 28.1832C20.6291 34.82 20.5329 41.1518 19.956 47.8482C20.0388 47.9576 19.6509 49.1743 19.4453 49.4627L10.5688 63.7042C7.25959 68.9254 4.24548 75.5423 2.35545 81.3603C1.30433 84.5892 -0.844336 92.7078 0.352683 95.9002C2.1134 100.594 6.91474 100.614 12.9396 99.5302C14.1599 99.3114 19.3127 98.0285 21.1563 97.3721C21.4613 97.2627 23.2187 96.6792 24.9529 96.182C32.3771 112.35 46.7148 128 64.4347 128C82.1546 128 97.0659 113.175 104.357 96.0924C106.075 96.7256 107.521 97.2892 107.76 97.3754C109.603 98.0351 112.647 99.0727 113.781 99.5666C123.523 103.817 129.286 99.5965 129.246 94.594C129.21 89.8999 127.608 84.5958 126.56 81.3636ZM92.9841 48.3322C88.7431 53.2949 79.4157 61.4002 63.7185 61.4002C48.0213 61.4002 39.4631 52.7346 35.7858 47.5001C34.3169 45.4083 33.5609 42.4513 33.73 39.4412L34.0218 31.6972C34.3102 26.4528 35.9814 24.9179 40.8391 24.9179L88.6039 25.1731C93.886 25.1731 95.093 26.8771 95.3185 32.1348L95.5307 39.8357C95.6699 43.1143 94.7282 46.2968 92.9874 48.3322H92.9841Z" fill="#6E4CFF"/>
<path d="M47.9052 44.8513V37.4322C47.9052 36.4244 48.7242 35.6056 49.7322 35.6056H53.7875C55.4388 35.6056 56.7784 36.9449 56.7784 38.5958V44.848C56.7784 46.4989 55.4388 47.8382 53.7875 47.8382H50.8961C49.2448 47.8382 47.9052 46.4989 47.9052 44.848V44.8513Z" fill="#6E4CFF"/>
<path d="M72.469 38.5991C72.469 36.9482 73.8086 35.6089 75.4599 35.6089H79.5152C80.5232 35.6089 81.3422 36.4277 81.3422 37.4355V44.8546C81.3422 46.5055 80.0026 47.8448 78.3513 47.8448H75.4599C73.8086 47.8448 72.469 46.5055 72.469 44.8546V38.5991Z" fill="#6E4CFF"/>
</svg>
